# xmcd
#
# Track frame offsets: 
#        150
#        9018
#        23521
#        34790
#        49704
#        65455
#        82860
#        99038
#        116700
#        142510
#        158665
#        178782
#
# Disc length: 2600 seconds
#
# Revision: 2
# Processed by: cddbd v1.5.2PL0 Copyright (c) Steve Scherf et al.
# Submitted via: ExactAudioCopy v0.95b4
#
DISCID=780a260c
DTITLE=Mary Karlzen - The Wanderlust Diaries
DYEAR=2007
DGENRE=Rock
TTITLE0=For One Moment
TTITLE1=Straws
TTITLE2=Skyway
TTITLE3=Oh My
TTITLE4=Show Me
TTITLE5=Jump
TTITLE6=Find Yourself
TTITLE7=Heart Of Saturday Night
TTITLE8=Friends Along The Way
TTITLE9=Stupid Or Something
TTITLE10=Sixteen
TTITLE11=Stay Forever
EXTD=
EXTT0=
EXTT1=
EXTT2=
EXTT3=
EXTT4=
EXTT5=
EXTT6=
EXTT7=
EXTT8=
EXTT9=
EXTT10=
EXTT11=
PLAYORDER=
